<svg width="20" height="17" viewBox="0 0 20 17" fill="none" xmlns="http://www.w3.org/2000/svg">
<path d="M9.60958 14.0982C12.5285 14.0982 14.9004 11.7238 14.9004 8.80496C14.9004 5.88636 12.5282 3.51416 9.60958 3.51416C6.69098 3.51416 4.31638 5.88604 4.31638 8.80496C4.31638 11.7239 6.69058 14.0978 9.60958 14.0978V14.0982ZM9.60958 4.18616C12.1654 4.18616 14.2284 6.24912 14.2284 8.80496C14.2284 11.3608 12.1651 13.4262 9.60958 13.4262C7.05406 13.4262 4.98838 11.3607 4.98838 8.80496C4.98838 6.24916 7.0537 4.18616 9.60958 4.18616Z" fill="white"/>
<path d="M9.60958 11.5108C11.0779 11.5108 12.2707 10.2933 12.2707 8.80487C12.2707 7.31847 11.0779 6.10111 9.60958 6.10111C9.42412 6.09845 9.2713 6.24673 9.2688 6.43236C9.26615 6.61783 9.41443 6.77064 9.60005 6.77314H9.60943C10.7079 6.77314 11.5985 7.67502 11.5985 8.80486C11.5985 9.93722 10.7079 10.8388 9.60943 10.8388C8.50819 10.8388 7.62035 9.9377 7.62035 8.80486C7.623 8.61939 7.47472 8.46658 7.2891 8.46408C7.10363 8.46142 6.95113 8.6097 6.94832 8.79533V8.8047C6.94847 10.293 8.13926 11.5108 9.60958 11.5108Z" fill="white"/>
<path d="M16.222 5.09762C16.8057 5.09762 17.2793 4.61058 17.2793 4.02682C17.2793 3.44198 16.8057 2.95386 16.222 2.95386C15.6382 2.95386 15.1646 3.44198 15.1646 4.02682C15.1646 4.61074 15.6382 5.09762 16.222 5.09762ZM16.222 3.62606C16.4357 3.62606 16.6073 3.79653 16.6073 4.02698C16.6073 4.25417 16.4357 4.42573 16.222 4.42573C16.0082 4.42573 15.8367 4.25417 15.8367 4.02698C15.8367 3.79651 16.0082 3.62606 16.222 3.62606Z" fill="white"/>
<path d="M17.2456 16.1613C18.2814 16.1613 19.1271 15.2975 19.1271 14.2505L19.1273 3.36206C19.1273 2.31502 18.2815 1.45126 17.2457 1.45126H5.47894V1.43783C5.47894 0.757026 4.9283 0.190186 4.24926 0.190186H2.66786C1.98866 0.190186 1.43582 0.755986 1.43582 1.43783V1.53142C0.658175 1.76798 0.0917358 2.50314 0.0917358 3.3619V14.2503C0.0917358 15.2965 0.935336 16.1611 1.9711 16.1611L17.2456 16.1613ZM2.10758 1.43766C2.10758 1.11594 2.36117 0.862023 2.66758 0.862023H4.24898C4.55539 0.862023 4.80678 1.11499 4.80678 1.43766V1.4511H2.10758V1.43766ZM0.7635 14.2505V3.36206C0.7635 2.74722 1.20522 2.24034 1.76882 2.14126C1.80069 2.14142 1.83226 2.1372 1.86288 2.12845C1.89804 2.12501 1.93429 2.12329 1.97085 2.12329H5.08805C5.12383 2.12908 5.16055 2.12908 5.19649 2.12329H17.2453C17.9075 2.12329 18.4548 2.67517 18.4548 3.36205V14.2505C18.4548 14.9372 17.9073 15.4892 17.2453 15.4892H1.97089C1.30885 15.4892 0.763527 14.938 0.763527 14.2505L0.7635 14.2505Z" fill="white"/>
<path d="M15.3568 14.6805H15.3662H16.5176C16.6788 14.6805 16.816 14.677 16.9516 14.6516C17.0874 14.6261 17.2351 14.5695 17.3473 14.4549C17.5716 14.2255 17.5705 13.9435 17.5705 13.5895L17.5707 11.195C17.5734 11.0096 17.4251 10.8567 17.2394 10.8542H17.2296C17.0441 10.8569 16.896 11.0094 16.8988 11.195V13.5895C16.8988 13.8544 16.8641 13.9639 16.8632 13.9828C16.8563 13.9849 16.8462 13.9875 16.8277 13.9911C16.7713 14.0016 16.6646 14.0086 16.5179 14.0086H15.3663C15.1809 14.0059 15.0284 14.1542 15.0255 14.3399C15.0229 14.5252 15.1712 14.6778 15.3568 14.6805L15.3568 14.6805Z" fill="white"/>
<circle cx="9.70966" cy="8.80591" r="2.76147" fill="white"/>
</svg>
