<svg width="21" height="21" viewBox="0 0 21 21" fill="none" xmlns="http://www.w3.org/2000/svg">
<path d="M10.6098 0.975586C5.0988 0.975586 0.609802 5.46458 0.609802 10.9756C0.609802 16.4866 5.0988 20.9756 10.6098 20.9756C16.1208 20.9756 20.6098 16.4866 20.6098 10.9756C20.6098 5.46458 16.1208 0.975586 10.6098 0.975586ZM10.6098 2.97559C15.0399 2.97559 18.6098 6.54546 18.6098 10.9756C18.6098 14.9901 15.6751 18.2886 11.8286 18.874V13.3604H14.1567L14.5219 10.9951H11.8286V9.70215C11.8286 8.71915 12.1488 7.84668 13.0688 7.84668H14.5453V5.78223C14.2853 5.74723 13.7366 5.6709 12.6996 5.6709C10.5336 5.6709 9.2641 6.8149 9.2641 9.4209V10.9951H7.03754V13.3604H9.2641V18.8545C5.48009 18.2164 2.6098 14.9458 2.6098 10.9756C2.6098 6.54546 6.17968 2.97559 10.6098 2.97559Z" fill="white"/>
</svg>
