<svg width="25" height="18" viewBox="0 0 25 18" fill="none" xmlns="http://www.w3.org/2000/svg">
<path d="M20.5483 0.667969H4.67134C3.59415 0.667969 2.56109 1.09588 1.7994 1.85757C1.03771 2.61925 0.609802 3.65232 0.609802 4.72951V13.2218C0.609802 14.299 1.03771 15.3321 1.7994 16.0938C2.56109 16.8554 3.59415 17.2834 4.67134 17.2834H20.5483C21.6255 17.2834 22.6585 16.8554 23.4202 16.0938C24.1819 15.3321 24.6098 14.299 24.6098 13.2218V4.72951C24.6098 3.65232 24.1819 2.61925 23.4202 1.85757C22.6585 1.09588 21.6255 0.667969 20.5483 0.667969ZM17.3101 9.13812L10.1101 12.8304C10.0821 12.845 10.0508 12.852 10.0192 12.851C9.98768 12.85 9.95692 12.8409 9.92988 12.8246C9.90284 12.8083 9.88043 12.7854 9.8648 12.7579C9.84916 12.7305 9.84082 12.6995 9.84057 12.668V5.28335C9.84082 5.25178 9.84916 5.22081 9.8648 5.19338C9.88043 5.16595 9.90284 5.14299 9.92988 5.1267C9.95692 5.1104 9.98768 5.10131 10.0192 5.10029C10.0508 5.09928 10.0821 5.10637 10.1101 5.12089L17.3101 8.8132C17.3404 8.82869 17.3657 8.85223 17.3834 8.88122C17.4012 8.91021 17.4105 8.94353 17.4105 8.97751C17.4105 9.01149 17.4012 9.0448 17.3834 9.07379C17.3657 9.10279 17.3404 9.12632 17.3101 9.14182V9.13812Z" fill="white"/>
</svg>
